<svg xmlns="http://www.w3.org/2000/svg" xmlns:xlink="http://www.w3.org/1999/xlink" width="1024" zoomAndPan="magnify" viewBox="0 0 768 191.999996" height="256" preserveAspectRatio="xMidYMid meet" version="1.0"><defs><g/><clipPath id="a0c4a3f446"><path d="M 405.398438 138.136719 L 427.148438 138.136719 L 427.148438 159.886719 L 405.398438 159.886719 Z M 405.398438 138.136719 " clip-rule="nonzero"/></clipPath><clipPath id="1b708556f8"><path d="M 239.242188 138.136719 L 258.742188 138.136719 L 258.742188 157.636719 L 239.242188 157.636719 Z M 239.242188 138.136719 " clip-rule="nonzero"/></clipPath><clipPath id="38d911b753"><path d="M 518.589844 42.273438 L 541.839844 42.273438 L 541.839844 65.523438 L 518.589844 65.523438 Z M 518.589844 42.273438 " clip-rule="nonzero"/></clipPath><clipPath id="2f0258bb78"><path d="M 309.039062 32.980469 L 335.289062 32.980469 L 335.289062 59.230469 L 309.039062 59.230469 Z M 309.039062 32.980469 " clip-rule="nonzero"/></clipPath><clipPath id="ca4cc11fc5"><path d="M 441.042969 28.808594 L 454.542969 28.808594 L 454.542969 42.308594 L 441.042969 42.308594 Z M 441.042969 28.808594 " clip-rule="nonzero"/></clipPath><clipPath id="beadef69c5"><path d="M 518.625 115.640625 L 550.875 115.640625 L 550.875 147.890625 L 518.625 147.890625 Z M 518.625 115.640625 " clip-rule="nonzero"/></clipPath><clipPath id="7f1bac0951"><path d="M 262.855469 127.851562 L 279.355469 127.851562 L 279.355469 144.351562 L 262.855469 144.351562 Z M 262.855469 127.851562 " clip-rule="nonzero"/></clipPath><clipPath id="dcaef734a2"><path d="M 230.0625 23.226562 L 248.8125 23.226562 L 248.8125 41.976562 L 230.0625 41.976562 Z M 230.0625 23.226562 " clip-rule="nonzero"/></clipPath><clipPath id="69ae71fc5f"><path d="M 359.5 127.851562 L 377.5 127.851562 L 377.5 145.851562 L 359.5 145.851562 Z M 359.5 127.851562 " clip-rule="nonzero"/></clipPath><clipPath id="782d7895b5"><path d="M 447.925781 13.007812 L 469.675781 13.007812 L 469.675781 34.757812 L 447.925781 34.757812 Z M 447.925781 13.007812 " clip-rule="nonzero"/></clipPath></defs><g fill="#c88b85" fill-opacity="1"><g transform="translate(212.138107, 106.92234)"><g><path d="M 28.25 -36.523438 L 2.855469 -36.523438 C 1.746094 -36.523438 1.398438 -36.058594 1.28125 -34.949219 C 1.105469 -33.378906 0.464844 -30.347656 0.464844 -29.941406 C 0.464844 -29.300781 1.398438 -29.183594 1.921875 -29.707031 C 3.84375 -31.570312 7.804688 -34.890625 10.136719 -34.890625 L 11.476562 -34.890625 L 11.476562 -21.726562 C 11.476562 -17.648438 11.007812 -9.960938 8.796875 -8.328125 C 8.214844 -7.863281 8.214844 -6.875 9.4375 -6.875 L 21.667969 -6.875 C 22.949219 -6.875 22.890625 -7.863281 22.308594 -8.328125 C 20.097656 -9.960938 19.628906 -17.648438 19.628906 -21.726562 L 19.628906 -34.890625 L 20.96875 -34.890625 C 23.300781 -34.890625 27.261719 -31.570312 29.183594 -29.707031 C 29.765625 -29.183594 30.640625 -29.300781 30.640625 -29.941406 C 30.640625 -30.347656 30 -33.378906 29.824219 -34.949219 C 29.707031 -36.058594 29.359375 -36.523438 28.25 -36.523438 Z M 28.25 -36.523438 "/></g></g></g><g fill="#c88b85" fill-opacity="1"><g transform="translate(236.486419, 106.92234)"><g><path d="M 28.484375 -8.097656 C 26.503906 -9.609375 26.097656 -10.894531 26.097656 -13.046875 L 26.097656 -16.890625 C 26.097656 -23.300781 22.136719 -28.425781 15.785156 -28.425781 C 13.515625 -28.425781 11.765625 -27.144531 10.484375 -25.511719 C 10.601562 -28.71875 10.894531 -31.980469 11.476562 -35.066406 C 11.589844 -35.824219 12.117188 -36.8125 10.894531 -36.523438 C 8.738281 -36.113281 6.175781 -32.269531 0.582031 -32.269531 C 0 -32.269531 -0.234375 -31.570312 0.347656 -31.105469 C 2.386719 -29.589844 2.738281 -28.308594 2.738281 -26.15625 L 2.738281 -13.046875 C 2.738281 -10.894531 2.386719 -9.609375 0.347656 -8.097656 C -0.234375 -7.628906 0 -6.875 0.582031 -6.875 L 12.117188 -6.875 C 13.398438 -6.875 13.339844 -7.863281 12.757812 -8.328125 C 11.359375 -9.378906 10.425781 -15.378906 10.425781 -22.425781 C 11.535156 -24.699219 13.046875 -25.980469 14.097656 -25.980469 C 18.117188 -25.980469 19.863281 -11.707031 16.078125 -8.328125 C 15.554688 -7.804688 15.496094 -6.875 16.71875 -6.875 L 28.308594 -6.875 C 28.890625 -6.875 29.125 -7.628906 28.484375 -8.097656 Z M 28.484375 -8.097656 "/></g></g></g><g fill="#c88b85" fill-opacity="1"><g transform="translate(266.135448, 106.92234)"><g><path d="M 20.738281 -13.574219 C 19.105469 -11.417969 15.554688 -10.660156 13.398438 -11.242188 C 11.066406 -11.941406 9.785156 -13.574219 9.203125 -15.496094 C 10.425781 -14.96875 11.765625 -14.621094 13.28125 -14.621094 C 17.824219 -14.621094 21.550781 -17.707031 21.550781 -21.496094 C 21.550781 -25.339844 16.660156 -28.425781 12.117188 -28.425781 C 5.125 -28.425781 0 -23.589844 0 -17.648438 C 0 -11.707031 5.183594 -6.875 11.648438 -6.875 C 16.136719 -6.875 20.039062 -9.261719 21.960938 -12.699219 C 22.308594 -13.339844 21.320312 -14.328125 20.738281 -13.574219 Z M 11.824219 -26.796875 C 13.398438 -26.796875 14.503906 -24.40625 14.503906 -21.496094 C 14.503906 -18.640625 13.398438 -16.25 11.824219 -16.25 C 10.425781 -16.25 8.96875 -18.175781 8.96875 -21.261719 C 8.96875 -24.988281 10.894531 -26.796875 11.824219 -26.796875 Z M 11.824219 -26.796875 "/></g></g></g><g fill="#c88b85" fill-opacity="1"><g transform="translate(288.794529, 106.92234)"><g/></g></g><g fill="#c88b85" fill-opacity="1"><g transform="translate(297.997949, 106.92234)"><g><path d="M 27.4375 -18.175781 C 25.628906 -11.242188 13.046875 -9.667969 9.667969 -19.980469 C 7.515625 -26.621094 8.738281 -32.851562 12.175781 -33.84375 C 15.4375 -34.773438 17.648438 -32.386719 15.554688 -24.757812 C 13.515625 -17.476562 23.882812 -19.570312 26.910156 -23.882812 C 31.105469 -30 23.300781 -36.523438 15.667969 -36.523438 C 7.046875 -36.523438 0 -29.882812 0 -21.726562 C 0 -13.515625 7.046875 -6.875 15.667969 -6.875 C 22.425781 -6.875 28.484375 -11.589844 29.183594 -17.941406 C 29.359375 -19.164062 27.785156 -19.6875 27.4375 -18.175781 Z M 27.4375 -18.175781 "/></g></g></g><g fill="#c88b85" fill-opacity="1"><g transform="translate(327.821721, 106.92234)"><g><path d="M 17.707031 -28.425781 C 14.796875 -28.425781 12.117188 -25.105469 10.777344 -23.125 L 11.242188 -26.910156 C 11.359375 -27.667969 11.941406 -28.601562 10.71875 -28.367188 C 8.503906 -27.902344 6.175781 -24.117188 0.582031 -24.117188 C 0 -24.117188 -0.234375 -23.417969 0.347656 -22.949219 C 2.386719 -21.378906 2.738281 -20.097656 2.738281 -17.941406 L 2.738281 -13.046875 C 2.738281 -10.894531 2.386719 -9.609375 0.347656 -8.097656 C -0.234375 -7.628906 0 -6.875 0.582031 -6.875 L 11.941406 -6.875 C 13.164062 -6.875 13.164062 -7.863281 12.523438 -8.328125 C 10.894531 -9.554688 10.078125 -13.6875 10.484375 -20.15625 C 11.589844 -22.25 13.574219 -24.40625 14.96875 -24.40625 C 16.019531 -24.40625 15.496094 -23.242188 15.261719 -21.960938 C 14.621094 -17.417969 24.40625 -19.222656 23.300781 -24.757812 C 22.835938 -27.203125 19.980469 -28.425781 17.707031 -28.425781 Z M 17.707031 -28.425781 "/></g></g></g><g fill="#c88b85" fill-opacity="1"><g transform="translate(351.64579, 106.92234)"><g><path d="M 23.359375 -8.097656 C 21.320312 -9.609375 20.96875 -10.894531 20.96875 -13.046875 L 20.96875 -17.824219 C 20.96875 -24.117188 16.25 -28.425781 10.019531 -28.425781 C 4.660156 -28.425781 1.746094 -25.746094 1.746094 -23.242188 C 1.746094 -19.863281 10.484375 -21.027344 9.261719 -23.882812 C 8.5625 -25.398438 8.5625 -26.796875 9.4375 -26.796875 C 11.535156 -26.796875 12.816406 -22.949219 12.816406 -19.570312 L 12.816406 -17.824219 C 11.535156 -19.515625 9.4375 -20.621094 7.105469 -20.621094 C 3.203125 -20.621094 0 -17.535156 0 -13.746094 C 0 -9.960938 3.203125 -6.875 7.105469 -6.875 C 9.4375 -6.875 11.535156 -7.980469 12.816406 -9.667969 C 12.816406 -9.667969 14.039062 -6.875 17.183594 -6.875 L 23.125 -6.875 C 23.765625 -6.875 23.941406 -7.628906 23.359375 -8.097656 Z M 9.667969 -10.019531 C 8.097656 -10.019531 6.816406 -11.707031 6.816406 -13.746094 C 6.816406 -15.785156 8.097656 -17.476562 9.667969 -17.476562 C 11.300781 -17.476562 12.582031 -15.785156 12.582031 -13.746094 C 12.582031 -11.707031 11.300781 -10.019531 9.667969 -10.019531 Z M 9.667969 -10.019531 "/></g></g></g><g fill="#c88b85" fill-opacity="1"><g transform="translate(376.052353, 106.92234)"><g><path d="M 14.910156 -25.863281 L 10.949219 -25.863281 C 11.417969 -30.640625 12.640625 -34.890625 14.269531 -34.890625 C 15.144531 -34.890625 15.144531 -33.550781 14.445312 -31.980469 C 12.816406 -28.136719 21.785156 -27.085938 22.019531 -31.398438 C 22.078125 -33.84375 19.046875 -36.523438 13.6875 -36.523438 C 7.457031 -36.523438 2.738281 -32.269531 2.738281 -25.980469 L 2.738281 -25.863281 L 1.804688 -25.863281 C 0.992188 -25.863281 0.757812 -25.222656 0.757812 -24.464844 C 0.757812 -23.707031 0.992188 -23.066406 1.804688 -23.066406 L 2.738281 -23.066406 L 2.738281 -13.046875 C 2.738281 -10.894531 2.386719 -9.609375 0.347656 -8.097656 C -0.234375 -7.628906 0 -6.875 0.582031 -6.875 L 12.117188 -6.875 C 13.398438 -6.875 13.339844 -7.863281 12.757812 -8.328125 C 11.417969 -9.320312 10.777344 -15.960938 10.777344 -21.726562 L 10.777344 -23.066406 L 14.910156 -23.066406 C 15.667969 -23.066406 15.902344 -23.707031 15.902344 -24.464844 C 15.902344 -25.222656 15.667969 -25.863281 14.910156 -25.863281 Z M 14.910156 -25.863281 "/></g></g></g><g fill="#c88b85" fill-opacity="1"><g transform="translate(392.711711, 106.92234)"><g><path d="M 14.328125 -25.863281 L 11.648438 -25.863281 C 11.824219 -27.785156 12.117188 -29.765625 12.464844 -31.804688 C 12.582031 -32.5625 12.058594 -33.492188 10.894531 -33.027344 C 8.15625 -32.039062 6.933594 -25.863281 1.339844 -25.863281 L 0.992188 -25.863281 C 0.234375 -25.863281 0 -25.222656 0 -24.464844 C 0 -23.707031 0.234375 -23.066406 0.992188 -23.066406 L 2.273438 -23.066406 C 3.085938 -21.144531 3.027344 -18.523438 3.027344 -17.007812 C 3.027344 -14.503906 3.085938 -10.136719 1.164062 -8.328125 C 0.582031 -7.804688 0.582031 -6.875 1.339844 -6.875 L 13.105469 -6.875 C 14.386719 -6.875 14.328125 -7.863281 13.746094 -8.328125 C 12.175781 -9.554688 11.125 -15.554688 11.476562 -23.066406 L 14.328125 -23.066406 C 15.085938 -23.066406 15.320312 -23.707031 15.320312 -24.464844 C 15.320312 -25.222656 15.085938 -25.863281 14.328125 -25.863281 Z M 14.328125 -25.863281 "/></g></g></g><g fill="#c88b85" fill-opacity="1"><g transform="translate(408.497328, 106.92234)"><g><path d="M 24.988281 -28.425781 L 18.230469 -28.425781 C 17.476562 -28.425781 17.242188 -27.726562 17.648438 -27.203125 C 20.039062 -24.464844 16.542969 -11.589844 16.542969 -11.589844 L 16.425781 -11.066406 L 16.308594 -11.242188 C 16.019531 -11.765625 11.183594 -20.738281 14.15625 -27.203125 C 14.445312 -27.84375 14.15625 -28.425781 13.574219 -28.425781 L 0.875 -28.425781 C -0.40625 -28.425781 -0.0585938 -27.4375 0.699219 -26.96875 C 2.328125 -25.980469 3.785156 -23.941406 5.882812 -16.949219 L 8.15625 -9.785156 C 8.796875 -7.746094 9.144531 -6.875 11.476562 -6.875 L 15.144531 -6.875 L 14.503906 -5.007812 C 11.417969 3.902344 6.640625 4.777344 7.804688 -0.234375 C 8.855469 -4.894531 2.097656 -6.292969 -1.105469 -2.097656 C -3.785156 1.457031 -1.28125 7.804688 5.066406 7.804688 C 8.445312 7.804688 12.640625 5.648438 15.496094 -2.855469 L 18 -10.894531 L 21.496094 -22.25 C 22.191406 -24.40625 22.777344 -26.039062 24.816406 -27.203125 C 25.570312 -27.667969 25.6875 -28.425781 24.988281 -28.425781 Z M 24.988281 -28.425781 "/></g></g></g><g fill="#c88b85" fill-opacity="1"><g transform="translate(434.534887, 106.92234)"><g/></g></g><g fill="#c88b85" fill-opacity="1"><g transform="translate(443.738308, 106.92234)"><g><path d="M 20.503906 -22.308594 C 22.777344 -23.765625 24.40625 -26.097656 24.40625 -28.71875 C 24.40625 -33.027344 20.097656 -36.523438 15.726562 -36.523438 L 0.582031 -36.523438 C 0 -36.523438 -0.234375 -35.824219 0.347656 -35.359375 C 2.386719 -33.84375 2.738281 -32.503906 2.738281 -30.40625 L 2.738281 -13.046875 C 2.738281 -10.894531 2.386719 -9.609375 0.347656 -8.097656 C -0.234375 -7.628906 0 -6.875 0.582031 -6.875 L 18.40625 -6.875 C 23.476562 -6.875 27.550781 -10.425781 27.550781 -14.738281 C 27.550781 -18.40625 24.582031 -21.496094 20.503906 -22.308594 Z M 12.757812 -8.503906 L 11.648438 -8.503906 C 11.125 -12.988281 10.949219 -17.183594 10.894531 -20.910156 L 12.757812 -20.910156 C 16.25 -20.910156 19.222656 -18.117188 19.222656 -14.738281 C 19.222656 -11.300781 16.25 -8.503906 12.757812 -8.503906 Z M 16.777344 -28.71875 C 16.777344 -25.339844 14.5625 -22.542969 11.125 -22.542969 L 10.894531 -22.542969 C 10.949219 -28.25 11.359375 -32.679688 11.589844 -34.890625 C 14.738281 -34.660156 16.777344 -31.980469 16.777344 -28.71875 Z M 16.777344 -28.71875 "/></g></g></g><g fill="#c88b85" fill-opacity="1"><g transform="translate(471.87285, 106.92234)"><g><path d="M 11.941406 -6.875 C 13.164062 -6.875 13.164062 -7.863281 12.523438 -8.328125 C 10.367188 -9.960938 9.667969 -16.542969 11.242188 -26.910156 C 11.359375 -27.667969 11.941406 -28.601562 10.71875 -28.367188 C 8.503906 -27.902344 6.175781 -24.117188 0.582031 -24.117188 C 0 -24.117188 -0.234375 -23.417969 0.347656 -22.949219 C 2.386719 -21.378906 2.738281 -20.097656 2.738281 -17.941406 L 2.738281 -13.046875 C 2.738281 -10.894531 2.386719 -9.609375 0.347656 -8.097656 C -0.234375 -7.628906 0 -6.875 0.582031 -6.875 Z M 4.367188 -28.019531 C 6.757812 -28.019531 9.085938 -29.941406 9.609375 -32.269531 C 10.136719 -34.660156 8.621094 -36.523438 6.292969 -36.523438 C 3.902344 -36.523438 1.574219 -34.660156 1.046875 -32.269531 C 0.523438 -29.941406 2.039062 -28.019531 4.367188 -28.019531 Z M 4.367188 -28.019531 "/></g></g></g><g fill="#c88b85" fill-opacity="1"><g transform="translate(485.677991, 106.92234)"><g><path d="M 8.039062 -25.28125 C 8.328125 -27.261719 11.125 -27.492188 10.894531 -24.289062 C 10.425781 -19.164062 20.269531 -20.039062 18.230469 -24.523438 C 16.949219 -27.378906 12.582031 -28.484375 8.914062 -28.425781 L 8.796875 -28.425781 C 3.613281 -28.25 -0.464844 -25.511719 0.0585938 -21.203125 C 0.757812 -15.378906 11.648438 -14.96875 10.484375 -10.019531 C 10.078125 -8.097656 7.398438 -7.804688 7.6875 -11.007812 C 8.097656 -16.136719 -1.746094 -15.261719 0.292969 -10.777344 C 1.574219 -7.980469 5.882812 -6.816406 9.609375 -6.875 L 9.726562 -6.933594 C 14.796875 -7.046875 19.046875 -10.542969 18.523438 -13.804688 C 17.648438 -19.164062 7.164062 -20.269531 8.039062 -25.28125 Z M 8.039062 -25.28125 "/></g></g></g><g fill="#c88b85" fill-opacity="1"><g transform="translate(504.842086, 106.92234)"><g><path d="M 11.648438 -28.425781 C 5.183594 -28.425781 0 -23.589844 0 -17.648438 C 0 -11.707031 5.183594 -6.875 11.648438 -6.875 C 18.058594 -6.875 23.242188 -11.707031 23.242188 -17.648438 C 23.242188 -23.589844 18.058594 -28.425781 11.648438 -28.425781 Z M 11.648438 -8.503906 C 9.785156 -8.503906 8.273438 -12.640625 8.273438 -17.648438 C 8.273438 -22.71875 9.785156 -26.796875 11.648438 -26.796875 C 13.457031 -26.796875 14.96875 -22.71875 14.96875 -17.648438 C 14.96875 -12.640625 13.457031 -8.503906 11.648438 -8.503906 Z M 11.648438 -8.503906 "/></g></g></g><g fill="#c88b85" fill-opacity="1"><g transform="translate(529.015655, 106.92234)"><g><path d="M 28.308594 -8.097656 C 26.269531 -9.609375 25.921875 -10.894531 25.921875 -13.046875 L 25.921875 -16.890625 C 25.921875 -23.300781 21.902344 -28.425781 15.609375 -28.425781 C 13.746094 -28.425781 12.234375 -27.203125 11.066406 -25.6875 L 11.242188 -26.910156 C 11.359375 -27.667969 11.941406 -28.601562 10.71875 -28.367188 C 8.503906 -27.902344 6.175781 -24.117188 0.582031 -24.117188 C 0 -24.117188 -0.234375 -23.417969 0.347656 -22.949219 C 2.386719 -21.378906 2.738281 -20.097656 2.738281 -17.941406 L 2.738281 -13.046875 C 2.738281 -10.894531 2.386719 -9.609375 0.347656 -8.097656 C -0.234375 -7.628906 0 -6.875 0.582031 -6.875 L 11.941406 -6.875 C 13.164062 -6.875 13.164062 -7.863281 12.523438 -8.328125 C 10.777344 -9.667969 9.960938 -14.386719 10.601562 -21.785156 C 11.589844 -24 12.757812 -25.746094 13.921875 -25.746094 C 17.941406 -25.746094 19.628906 -11.707031 15.902344 -8.328125 C 15.320312 -7.804688 15.261719 -6.875 16.484375 -6.875 L 28.078125 -6.875 C 28.660156 -6.875 28.890625 -7.628906 28.308594 -8.097656 Z M 28.308594 -8.097656 "/></g></g></g><g fill="#e6bcb6" fill-opacity="1"><g transform="translate(210.561643, 106.012166)"><g><path d="M 28.25 -36.523438 L 2.855469 -36.523438 C 1.746094 -36.523438 1.398438 -36.058594 1.28125 -34.949219 C 1.105469 -33.378906 0.464844 -30.347656 0.464844 -29.941406 C 0.464844 -29.300781 1.398438 -29.183594 1.921875 -29.707031 C 3.84375 -31.570312 7.804688 -34.890625 10.136719 -34.890625 L 11.476562 -34.890625 L 11.476562 -21.726562 C 11.476562 -17.648438 11.007812 -9.960938 8.796875 -8.328125 C 8.214844 -7.863281 8.214844 -6.875 9.4375 -6.875 L 21.667969 -6.875 C 22.949219 -6.875 22.890625 -7.863281 22.308594 -8.328125 C 20.097656 -9.960938 19.628906 -17.648438 19.628906 -21.726562 L 19.628906 -34.890625 L 20.96875 -34.890625 C 23.300781 -34.890625 27.261719 -31.570312 29.183594 -29.707031 C 29.765625 -29.183594 30.640625 -29.300781 30.640625 -29.941406 C 30.640625 -30.347656 30 -33.378906 29.824219 -34.949219 C 29.707031 -36.058594 29.359375 -36.523438 28.25 -36.523438 Z M 28.25 -36.523438 "/></g></g></g><g fill="#e6bcb6" fill-opacity="1"><g transform="translate(234.909955, 106.012166)"><g><path d="M 28.484375 -8.097656 C 26.503906 -9.609375 26.097656 -10.894531 26.097656 -13.046875 L 26.097656 -16.890625 C 26.097656 -23.300781 22.136719 -28.425781 15.785156 -28.425781 C 13.515625 -28.425781 11.765625 -27.144531 10.484375 -25.511719 C 10.601562 -28.71875 10.894531 -31.980469 11.476562 -35.066406 C 11.589844 -35.824219 12.117188 -36.8125 10.894531 -36.523438 C 8.738281 -36.113281 6.175781 -32.269531 0.582031 -32.269531 C 0 -32.269531 -0.234375 -31.570312 0.347656 -31.105469 C 2.386719 -29.589844 2.738281 -28.308594 2.738281 -26.15625 L 2.738281 -13.046875 C 2.738281 -10.894531 2.386719 -9.609375 0.347656 -8.097656 C -0.234375 -7.628906 0 -6.875 0.582031 -6.875 L 12.117188 -6.875 C 13.398438 -6.875 13.339844 -7.863281 12.757812 -8.328125 C 11.359375 -9.378906 10.425781 -15.378906 10.425781 -22.425781 C 11.535156 -24.699219 13.046875 -25.980469 14.097656 -25.980469 C 18.117188 -25.980469 19.863281 -11.707031 16.078125 -8.328125 C 15.554688 -7.804688 15.496094 -6.875 16.71875 -6.875 L 28.308594 -6.875 C 28.890625 -6.875 29.125 -7.628906 28.484375 -8.097656 Z M 28.484375 -8.097656 "/></g></g></g><g fill="#e6bcb6" fill-opacity="1"><g transform="translate(264.558984, 106.012166)"><g><path d="M 20.738281 -13.574219 C 19.105469 -11.417969 15.554688 -10.660156 13.398438 -11.242188 C 11.066406 -11.941406 9.785156 -13.574219 9.203125 -15.496094 C 10.425781 -14.96875 11.765625 -14.621094 13.28125 -14.621094 C 17.824219 -14.621094 21.550781 -17.707031 21.550781 -21.496094 C 21.550781 -25.339844 16.660156 -28.425781 12.117188 -28.425781 C 5.125 -28.425781 0 -23.589844 0 -17.648438 C 0 -11.707031 5.183594 -6.875 11.648438 -6.875 C 16.136719 -6.875 20.039062 -9.261719 21.960938 -12.699219 C 22.308594 -13.339844 21.320312 -14.328125 20.738281 -13.574219 Z M 11.824219 -26.796875 C 13.398438 -26.796875 14.503906 -24.40625 14.503906 -21.496094 C 14.503906 -18.640625 13.398438 -16.25 11.824219 -16.25 C 10.425781 -16.25 8.96875 -18.175781 8.96875 -21.261719 C 8.96875 -24.988281 10.894531 -26.796875 11.824219 -26.796875 Z M 11.824219 -26.796875 "/></g></g></g><g fill="#e6bcb6" fill-opacity="1"><g transform="translate(287.218065, 106.012166)"><g/></g></g><g fill="#e6bcb6" fill-opacity="1"><g transform="translate(296.421485, 106.012166)"><g><path d="M 27.4375 -18.175781 C 25.628906 -11.242188 13.046875 -9.667969 9.667969 -19.980469 C 7.515625 -26.621094 8.738281 -32.851562 12.175781 -33.84375 C 15.4375 -34.773438 17.648438 -32.386719 15.554688 -24.757812 C 13.515625 -17.476562 23.882812 -19.570312 26.910156 -23.882812 C 31.105469 -30 23.300781 -36.523438 15.667969 -36.523438 C 7.046875 -36.523438 0 -29.882812 0 -21.726562 C 0 -13.515625 7.046875 -6.875 15.667969 -6.875 C 22.425781 -6.875 28.484375 -11.589844 29.183594 -17.941406 C 29.359375 -19.164062 27.785156 -19.6875 27.4375 -18.175781 Z M 27.4375 -18.175781 "/></g></g></g><g fill="#e6bcb6" fill-opacity="1"><g transform="translate(326.245257, 106.012166)"><g><path d="M 17.707031 -28.425781 C 14.796875 -28.425781 12.117188 -25.105469 10.777344 -23.125 L 11.242188 -26.910156 C 11.359375 -27.667969 11.941406 -28.601562 10.71875 -28.367188 C 8.503906 -27.902344 6.175781 -24.117188 0.582031 -24.117188 C 0 -24.117188 -0.234375 -23.417969 0.347656 -22.949219 C 2.386719 -21.378906 2.738281 -20.097656 2.738281 -17.941406 L 2.738281 -13.046875 C 2.738281 -10.894531 2.386719 -9.609375 0.347656 -8.097656 C -0.234375 -7.628906 0 -6.875 0.582031 -6.875 L 11.941406 -6.875 C 13.164062 -6.875 13.164062 -7.863281 12.523438 -8.328125 C 10.894531 -9.554688 10.078125 -13.6875 10.484375 -20.15625 C 11.589844 -22.25 13.574219 -24.40625 14.96875 -24.40625 C 16.019531 -24.40625 15.496094 -23.242188 15.261719 -21.960938 C 14.621094 -17.417969 24.40625 -19.222656 23.300781 -24.757812 C 22.835938 -27.203125 19.980469 -28.425781 17.707031 -28.425781 Z M 17.707031 -28.425781 "/></g></g></g><g fill="#e6bcb6" fill-opacity="1"><g transform="translate(350.069326, 106.012166)"><g><path d="M 23.359375 -8.097656 C 21.320312 -9.609375 20.96875 -10.894531 20.96875 -13.046875 L 20.96875 -17.824219 C 20.96875 -24.117188 16.25 -28.425781 10.019531 -28.425781 C 4.660156 -28.425781 1.746094 -25.746094 1.746094 -23.242188 C 1.746094 -19.863281 10.484375 -21.027344 9.261719 -23.882812 C 8.5625 -25.398438 8.5625 -26.796875 9.4375 -26.796875 C 11.535156 -26.796875 12.816406 -22.949219 12.816406 -19.570312 L 12.816406 -17.824219 C 11.535156 -19.515625 9.4375 -20.621094 7.105469 -20.621094 C 3.203125 -20.621094 0 -17.535156 0 -13.746094 C 0 -9.960938 3.203125 -6.875 7.105469 -6.875 C 9.4375 -6.875 11.535156 -7.980469 12.816406 -9.667969 C 12.816406 -9.667969 14.039062 -6.875 17.183594 -6.875 L 23.125 -6.875 C 23.765625 -6.875 23.941406 -7.628906 23.359375 -8.097656 Z M 9.667969 -10.019531 C 8.097656 -10.019531 6.816406 -11.707031 6.816406 -13.746094 C 6.816406 -15.785156 8.097656 -17.476562 9.667969 -17.476562 C 11.300781 -17.476562 12.582031 -15.785156 12.582031 -13.746094 C 12.582031 -11.707031 11.300781 -10.019531 9.667969 -10.019531 Z M 9.667969 -10.019531 "/></g></g></g><g fill="#e6bcb6" fill-opacity="1"><g transform="translate(374.475889, 106.012166)"><g><path d="M 14.910156 -25.863281 L 10.949219 -25.863281 C 11.417969 -30.640625 12.640625 -34.890625 14.269531 -34.890625 C 15.144531 -34.890625 15.144531 -33.550781 14.445312 -31.980469 C 12.816406 -28.136719 21.785156 -27.085938 22.019531 -31.398438 C 22.078125 -33.84375 19.046875 -36.523438 13.6875 -36.523438 C 7.457031 -36.523438 2.738281 -32.269531 2.738281 -25.980469 L 2.738281 -25.863281 L 1.804688 -25.863281 C 0.992188 -25.863281 0.757812 -25.222656 0.757812 -24.464844 C 0.757812 -23.707031 0.992188 -23.066406 1.804688 -23.066406 L 2.738281 -23.066406 L 2.738281 -13.046875 C 2.738281 -10.894531 2.386719 -9.609375 0.347656 -8.097656 C -0.234375 -7.628906 0 -6.875 0.582031 -6.875 L 12.117188 -6.875 C 13.398438 -6.875 13.339844 -7.863281 12.757812 -8.328125 C 11.417969 -9.320312 10.777344 -15.960938 10.777344 -21.726562 L 10.777344 -23.066406 L 14.910156 -23.066406 C 15.667969 -23.066406 15.902344 -23.707031 15.902344 -24.464844 C 15.902344 -25.222656 15.667969 -25.863281 14.910156 -25.863281 Z M 14.910156 -25.863281 "/></g></g></g><g fill="#e6bcb6" fill-opacity="1"><g transform="translate(391.135247, 106.012166)"><g><path d="M 14.328125 -25.863281 L 11.648438 -25.863281 C 11.824219 -27.785156 12.117188 -29.765625 12.464844 -31.804688 C 12.582031 -32.5625 12.058594 -33.492188 10.894531 -33.027344 C 8.15625 -32.039062 6.933594 -25.863281 1.339844 -25.863281 L 0.992188 -25.863281 C 0.234375 -25.863281 0 -25.222656 0 -24.464844 C 0 -23.707031 0.234375 -23.066406 0.992188 -23.066406 L 2.273438 -23.066406 C 3.085938 -21.144531 3.027344 -18.523438 3.027344 -17.007812 C 3.027344 -14.503906 3.085938 -10.136719 1.164062 -8.328125 C 0.582031 -7.804688 0.582031 -6.875 1.339844 -6.875 L 13.105469 -6.875 C 14.386719 -6.875 14.328125 -7.863281 13.746094 -8.328125 C 12.175781 -9.554688 11.125 -15.554688 11.476562 -23.066406 L 14.328125 -23.066406 C 15.085938 -23.066406 15.320312 -23.707031 15.320312 -24.464844 C 15.320312 -25.222656 15.085938 -25.863281 14.328125 -25.863281 Z M 14.328125 -25.863281 "/></g></g></g><g fill="#e6bcb6" fill-opacity="1"><g transform="translate(406.920864, 106.012166)"><g><path d="M 24.988281 -28.425781 L 18.230469 -28.425781 C 17.476562 -28.425781 17.242188 -27.726562 17.648438 -27.203125 C 20.039062 -24.464844 16.542969 -11.589844 16.542969 -11.589844 L 16.425781 -11.066406 L 16.308594 -11.242188 C 16.019531 -11.765625 11.183594 -20.738281 14.15625 -27.203125 C 14.445312 -27.84375 14.15625 -28.425781 13.574219 -28.425781 L 0.875 -28.425781 C -0.40625 -28.425781 -0.0585938 -27.4375 0.699219 -26.96875 C 2.328125 -25.980469 3.785156 -23.941406 5.882812 -16.949219 L 8.15625 -9.785156 C 8.796875 -7.746094 9.144531 -6.875 11.476562 -6.875 L 15.144531 -6.875 L 14.503906 -5.007812 C 11.417969 3.902344 6.640625 4.777344 7.804688 -0.234375 C 8.855469 -4.894531 2.097656 -6.292969 -1.105469 -2.097656 C -3.785156 1.457031 -1.28125 7.804688 5.066406 7.804688 C 8.445312 7.804688 12.640625 5.648438 15.496094 -2.855469 L 18 -10.894531 L 21.496094 -22.25 C 22.191406 -24.40625 22.777344 -26.039062 24.816406 -27.203125 C 25.570312 -27.667969 25.6875 -28.425781 24.988281 -28.425781 Z M 24.988281 -28.425781 "/></g></g></g><g fill="#e6bcb6" fill-opacity="1"><g transform="translate(432.958423, 106.012166)"><g/></g></g><g fill="#e6bcb6" fill-opacity="1"><g transform="translate(442.161844, 106.012166)"><g><path d="M 20.503906 -22.308594 C 22.777344 -23.765625 24.40625 -26.097656 24.40625 -28.71875 C 24.40625 -33.027344 20.097656 -36.523438 15.726562 -36.523438 L 0.582031 -36.523438 C 0 -36.523438 -0.234375 -35.824219 0.347656 -35.359375 C 2.386719 -33.84375 2.738281 -32.503906 2.738281 -30.40625 L 2.738281 -13.046875 C 2.738281 -10.894531 2.386719 -9.609375 0.347656 -8.097656 C -0.234375 -7.628906 0 -6.875 0.582031 -6.875 L 18.40625 -6.875 C 23.476562 -6.875 27.550781 -10.425781 27.550781 -14.738281 C 27.550781 -18.40625 24.582031 -21.496094 20.503906 -22.308594 Z M 12.757812 -8.503906 L 11.648438 -8.503906 C 11.125 -12.988281 10.949219 -17.183594 10.894531 -20.910156 L 12.757812 -20.910156 C 16.25 -20.910156 19.222656 -18.117188 19.222656 -14.738281 C 19.222656 -11.300781 16.25 -8.503906 12.757812 -8.503906 Z M 16.777344 -28.71875 C 16.777344 -25.339844 14.5625 -22.542969 11.125 -22.542969 L 10.894531 -22.542969 C 10.949219 -28.25 11.359375 -32.679688 11.589844 -34.890625 C 14.738281 -34.660156 16.777344 -31.980469 16.777344 -28.71875 Z M 16.777344 -28.71875 "/></g></g></g><g fill="#e6bcb6" fill-opacity="1"><g transform="translate(470.296386, 106.012166)"><g><path d="M 11.941406 -6.875 C 13.164062 -6.875 13.164062 -7.863281 12.523438 -8.328125 C 10.367188 -9.960938 9.667969 -16.542969 11.242188 -26.910156 C 11.359375 -27.667969 11.941406 -28.601562 10.71875 -28.367188 C 8.503906 -27.902344 6.175781 -24.117188 0.582031 -24.117188 C 0 -24.117188 -0.234375 -23.417969 0.347656 -22.949219 C 2.386719 -21.378906 2.738281 -20.097656 2.738281 -17.941406 L 2.738281 -13.046875 C 2.738281 -10.894531 2.386719 -9.609375 0.347656 -8.097656 C -0.234375 -7.628906 0 -6.875 0.582031 -6.875 Z M 4.367188 -28.019531 C 6.757812 -28.019531 9.085938 -29.941406 9.609375 -32.269531 C 10.136719 -34.660156 8.621094 -36.523438 6.292969 -36.523438 C 3.902344 -36.523438 1.574219 -34.660156 1.046875 -32.269531 C 0.523438 -29.941406 2.039062 -28.019531 4.367188 -28.019531 Z M 4.367188 -28.019531 "/></g></g></g><g fill="#e6bcb6" fill-opacity="1"><g transform="translate(484.101527, 106.012166)"><g><path d="M 8.039062 -25.28125 C 8.328125 -27.261719 11.125 -27.492188 10.894531 -24.289062 C 10.425781 -19.164062 20.269531 -20.039062 18.230469 -24.523438 C 16.949219 -27.378906 12.582031 -28.484375 8.914062 -28.425781 L 8.796875 -28.425781 C 3.613281 -28.25 -0.464844 -25.511719 0.0585938 -21.203125 C 0.757812 -15.378906 11.648438 -14.96875 10.484375 -10.019531 C 10.078125 -8.097656 7.398438 -7.804688 7.6875 -11.007812 C 8.097656 -16.136719 -1.746094 -15.261719 0.292969 -10.777344 C 1.574219 -7.980469 5.882812 -6.816406 9.609375 -6.875 L 9.726562 -6.933594 C 14.796875 -7.046875 19.046875 -10.542969 18.523438 -13.804688 C 17.648438 -19.164062 7.164062 -20.269531 8.039062 -25.28125 Z M 8.039062 -25.28125 "/></g></g></g><g fill="#e6bcb6" fill-opacity="1"><g transform="translate(503.265622, 106.012166)"><g><path d="M 11.648438 -28.425781 C 5.183594 -28.425781 0 -23.589844 0 -17.648438 C 0 -11.707031 5.183594 -6.875 11.648438 -6.875 C 18.058594 -6.875 23.242188 -11.707031 23.242188 -17.648438 C 23.242188 -23.589844 18.058594 -28.425781 11.648438 -28.425781 Z M 11.648438 -8.503906 C 9.785156 -8.503906 8.273438 -12.640625 8.273438 -17.648438 C 8.273438 -22.71875 9.785156 -26.796875 11.648438 -26.796875 C 13.457031 -26.796875 14.96875 -22.71875 14.96875 -17.648438 C 14.96875 -12.640625 13.457031 -8.503906 11.648438 -8.503906 Z M 11.648438 -8.503906 "/></g></g></g><g fill="#e6bcb6" fill-opacity="1"><g transform="translate(527.439191, 106.012166)"><g><path d="M 28.308594 -8.097656 C 26.269531 -9.609375 25.921875 -10.894531 25.921875 -13.046875 L 25.921875 -16.890625 C 25.921875 -23.300781 21.902344 -28.425781 15.609375 -28.425781 C 13.746094 -28.425781 12.234375 -27.203125 11.066406 -25.6875 L 11.242188 -26.910156 C 11.359375 -27.667969 11.941406 -28.601562 10.71875 -28.367188 C 8.503906 -27.902344 6.175781 -24.117188 0.582031 -24.117188 C 0 -24.117188 -0.234375 -23.417969 0.347656 -22.949219 C 2.386719 -21.378906 2.738281 -20.097656 2.738281 -17.941406 L 2.738281 -13.046875 C 2.738281 -10.894531 2.386719 -9.609375 0.347656 -8.097656 C -0.234375 -7.628906 0 -6.875 0.582031 -6.875 L 11.941406 -6.875 C 13.164062 -6.875 13.164062 -7.863281 12.523438 -8.328125 C 10.777344 -9.667969 9.960938 -14.386719 10.601562 -21.785156 C 11.589844 -24 12.757812 -25.746094 13.921875 -25.746094 C 17.941406 -25.746094 19.628906 -11.707031 15.902344 -8.328125 C 15.320312 -7.804688 15.261719 -6.875 16.484375 -6.875 L 28.078125 -6.875 C 28.660156 -6.875 28.890625 -7.628906 28.308594 -8.097656 Z M 28.308594 -8.097656 "/></g></g></g><g clip-path="url(#a0c4a3f446)"><path fill="#e6bcb6" d="M 427.152344 149.011719 C 419.523438 150.808594 418.070312 152.261719 416.273438 159.890625 C 414.480469 152.261719 413.027344 150.808594 405.398438 149.011719 C 413.027344 147.21875 414.480469 145.761719 416.273438 138.136719 C 418.070312 145.761719 419.523438 147.21875 427.152344 149.011719 Z M 427.152344 149.011719 " fill-opacity="1" fill-rule="nonzero"/></g><g clip-path="url(#1b708556f8)"><path fill="#c88b85" d="M 258.746094 147.886719 C 251.90625 149.496094 250.605469 150.800781 248.996094 157.640625 C 247.386719 150.800781 246.082031 149.496094 239.242188 147.886719 C 246.082031 146.277344 247.386719 144.972656 248.996094 138.136719 C 250.605469 144.972656 251.90625 146.277344 258.746094 147.886719 Z M 258.746094 147.886719 " fill-opacity="1" fill-rule="nonzero"/></g><g clip-path="url(#38d911b753)"><path fill="#e6bcb6" d="M 518.585938 53.898438 C 526.742188 51.980469 528.292969 50.425781 530.210938 42.269531 C 532.128906 50.425781 533.6875 51.980469 541.839844 53.898438 C 533.6875 55.816406 532.128906 57.371094 530.210938 65.523438 C 528.292969 57.371094 526.742188 55.816406 518.585938 53.898438 Z M 518.585938 53.898438 " fill-opacity="1" fill-rule="nonzero"/></g><g clip-path="url(#2f0258bb78)"><path fill="#e6bcb6" d="M 309.035156 46.101562 C 318.242188 43.9375 319.996094 42.179688 322.160156 32.972656 C 324.328125 42.179688 326.082031 43.9375 335.289062 46.101562 C 326.082031 48.269531 324.328125 50.023438 322.160156 59.230469 C 319.996094 50.023438 318.242188 48.269531 309.035156 46.101562 Z M 309.035156 46.101562 " fill-opacity="1" fill-rule="nonzero"/></g><g clip-path="url(#ca4cc11fc5)"><path fill="#c88b85" d="M 441.039062 35.558594 C 445.773438 34.441406 446.675781 33.539062 447.789062 28.804688 C 448.902344 33.539062 449.808594 34.441406 454.542969 35.558594 C 449.808594 36.671875 448.902344 37.574219 447.789062 42.308594 C 446.675781 37.574219 445.773438 36.671875 441.039062 35.558594 Z M 441.039062 35.558594 " fill-opacity="1" fill-rule="nonzero"/></g><g clip-path="url(#beadef69c5)"><path fill="#c88b85" d="M 550.882812 131.769531 C 539.570312 134.429688 537.414062 136.585938 534.753906 147.898438 C 532.09375 136.585938 529.933594 134.429688 518.625 131.769531 C 529.933594 129.109375 532.09375 126.949219 534.753906 115.640625 C 537.414062 126.949219 539.570312 129.109375 550.882812 131.769531 Z M 550.882812 131.769531 " fill-opacity="1" fill-rule="nonzero"/></g><g clip-path="url(#7f1bac0951)"><path fill="#e6bcb6" d="M 279.359375 136.105469 C 273.570312 137.464844 272.46875 138.566406 271.105469 144.355469 C 269.746094 138.566406 268.640625 137.464844 262.855469 136.105469 C 268.640625 134.742188 269.746094 133.640625 271.105469 127.851562 C 272.46875 133.640625 273.570312 134.742188 279.359375 136.105469 Z M 279.359375 136.105469 " fill-opacity="1" fill-rule="nonzero"/></g><g clip-path="url(#dcaef734a2)"><path fill="#c88b85" d="M 248.816406 32.601562 C 242.238281 34.152344 240.988281 35.402344 239.441406 41.980469 C 237.894531 35.402344 236.640625 34.152344 230.0625 32.601562 C 236.640625 31.054688 237.894531 29.800781 239.441406 23.226562 C 240.988281 29.800781 242.238281 31.054688 248.816406 32.601562 Z M 248.816406 32.601562 " fill-opacity="1" fill-rule="nonzero"/></g><g clip-path="url(#69ae71fc5f)"><path fill="#c88b85" d="M 377.503906 136.855469 C 371.191406 138.339844 369.988281 139.542969 368.5 145.855469 C 367.015625 139.542969 365.8125 138.339844 359.5 136.855469 C 365.8125 135.367188 367.015625 134.164062 368.5 127.851562 C 369.988281 134.164062 371.191406 135.367188 377.503906 136.855469 Z M 377.503906 136.855469 " fill-opacity="1" fill-rule="nonzero"/></g><g clip-path="url(#782d7895b5)"><path fill="#e6bcb6" d="M 469.683594 23.886719 C 462.050781 25.679688 460.597656 27.132812 458.804688 34.761719 C 457.011719 27.132812 455.554688 25.679688 447.925781 23.886719 C 455.554688 22.089844 457.011719 20.636719 458.804688 13.007812 C 460.597656 20.636719 462.050781 22.089844 469.683594 23.886719 Z M 469.683594 23.886719 " fill-opacity="1" fill-rule="nonzero"/></g></svg>