<svg xmlns="http://www.w3.org/2000/svg" xmlns:xlink="http://www.w3.org/1999/xlink" width="100" zoomAndPan="magnify" viewBox="0 0 75 74.999997" height="100" preserveAspectRatio="xMidYMid meet" version="1.0"><defs><clipPath id="0f5eaab154"><path d="M 13.257812 20.378906 L 62 20.378906 L 62 54.878906 L 13.257812 54.878906 Z M 13.257812 20.378906 " clip-rule="nonzero"/></clipPath><clipPath id="23d3ed00f4"><path d="M 12.3125 20.378906 L 61 20.378906 L 61 54.878906 L 12.3125 54.878906 Z M 12.3125 20.378906 " clip-rule="nonzero"/></clipPath></defs><rect x="-7.5" width="90" fill="#ffffff" y="-7.5" height="89.999996" fill-opacity="1"/><rect x="-7.5" width="90" fill="#ffffff" y="-7.5" height="89.999996" fill-opacity="1"/><rect x="-7.5" width="90" fill="#fbfaf9" y="-7.5" height="89.999996" fill-opacity="1"/><g clip-path="url(#0f5eaab154)"><path fill="#c88b85" d="M 60.042969 37.871094 C 58.195312 38.578125 57.839844 39.589844 57.601562 40.257812 C 57.445312 40.703125 57.410156 40.722656 57.265625 40.738281 C 56.878906 40.78125 56.054688 40.347656 55.324219 39.960938 C 54.742188 39.652344 54.148438 39.339844 53.589844 39.144531 C 53.308594 39.03125 52.96875 38.859375 52.636719 38.691406 C 52.285156 38.515625 51.921875 38.332031 51.609375 38.207031 C 51.132812 38.011719 50.636719 37.808594 50.289062 37.464844 C 50.027344 37.207031 49.816406 36.757812 49.96875 36.394531 C 50.058594 36.175781 49.957031 35.925781 49.738281 35.835938 C 49.519531 35.742188 49.269531 35.847656 49.179688 36.0625 C 48.871094 36.800781 49.214844 37.605469 49.6875 38.074219 C 50.15625 38.539062 50.757812 38.785156 51.289062 39 C 51.421875 39.054688 51.570312 39.121094 51.722656 39.195312 C 50.800781 39.652344 49.371094 40.75 47.457031 42.25 C 46.074219 43.335938 44.644531 44.457031 44 44.753906 C 42.8125 45.304688 40.949219 45.117188 40.027344 44.871094 C 40.371094 44 40.675781 43.066406 40.851562 42.089844 C 40.894531 41.859375 40.742188 41.636719 40.507812 41.59375 C 40.277344 41.550781 40.054688 41.703125 40.011719 41.9375 C 39.621094 44.0625 38.589844 46.042969 37.835938 47.488281 C 37.507812 48.117188 37.234375 48.640625 37.058594 49.078125 C 36.824219 49.261719 36.402344 49.371094 36.015625 49.46875 C 35.84375 49.515625 35.683594 49.554688 35.535156 49.601562 C 35.421875 49.640625 35.308594 49.671875 35.195312 49.707031 C 34.773438 49.835938 34.34375 49.964844 33.957031 50.195312 C 33.683594 49.789062 32.519531 47.984375 31.96875 45.773438 C 31.632812 44.429688 32.210938 42.984375 32.769531 41.585938 C 33.21875 40.464844 33.644531 39.402344 33.523438 38.476562 C 33.292969 36.703125 34.078125 33.609375 34.085938 33.578125 C 34.144531 33.347656 34.003906 33.117188 33.777344 33.058594 C 33.546875 33 33.316406 33.136719 33.257812 33.367188 C 33.222656 33.5 32.425781 36.652344 32.675781 38.589844 C 32.769531 39.292969 32.382812 40.25 31.976562 41.269531 C 31.722656 41.898438 31.457031 42.5625 31.269531 43.246094 C 30.59375 43.347656 26.441406 43.839844 23.410156 41.507812 C 23.375 41.460938 23.335938 41.417969 23.292969 41.386719 C 23.261719 41.367188 23.230469 41.351562 23.195312 41.335938 C 22.757812 40.972656 22.347656 40.550781 21.976562 40.050781 C 21.835938 39.863281 21.570312 39.824219 21.378906 39.964844 C 21.191406 40.105469 21.152344 40.375 21.292969 40.5625 C 21.707031 41.125 22.167969 41.601562 22.65625 42.007812 C 22.628906 42.125 22.550781 42.363281 22.304688 42.78125 C 22.195312 42.972656 21.988281 43.214844 21.730469 43.488281 C 21.726562 43.488281 21.726562 43.488281 21.726562 43.488281 C 21.375 43.855469 20.933594 44.273438 20.496094 44.6875 C 19.503906 45.621094 18.566406 46.507812 18.332031 47.125 C 17.9375 48.179688 17.882812 51.558594 18.9375 52.289062 C 19.351562 52.574219 19.855469 53.390625 20.195312 54.019531 L 17.734375 54.019531 C 17.648438 53.863281 17.535156 53.691406 17.402344 53.492188 C 17.101562 53.039062 16.6875 52.414062 16.71875 51.96875 C 16.761719 51.292969 16.34375 49.515625 15.835938 47.433594 C 15.683594 46.816406 15.554688 46.28125 15.488281 45.960938 C 15.410156 45.589844 15.46875 45.113281 15.53125 44.5625 C 15.652344 43.558594 15.800781 42.308594 15.21875 40.933594 C 14.433594 39.082031 14.257812 34.875 14.191406 33.289062 L 14.179688 33.066406 C 14.128906 31.863281 16.976562 28.140625 18.191406 27.824219 C 18.820312 27.660156 20.25 27.640625 21.761719 27.621094 C 23.472656 27.59375 25.242188 27.570312 26.355469 27.339844 C 27.671875 27.070312 29.078125 26.261719 30.5625 25.40625 C 31.515625 24.859375 32.496094 24.296875 33.476562 23.867188 C 38.195312 21.789062 42.054688 21.257812 45.277344 22.230469 C 46.5625 22.621094 48.007812 23.839844 48.632812 24.390625 C 48.621094 24.800781 48.621094 25.246094 48.632812 25.726562 C 48.78125 31.269531 53.304688 31.328125 53.4375 31.328125 C 53.441406 31.328125 53.441406 31.328125 53.441406 31.328125 C 53.675781 31.324219 53.867188 31.128906 53.863281 30.894531 C 53.859375 30.65625 53.660156 30.46875 53.429688 30.472656 C 53.269531 30.472656 49.613281 30.46875 49.488281 25.703125 C 49.441406 24.0625 49.566406 23.074219 49.71875 22.484375 C 49.726562 23.1875 49.777344 23.835938 49.863281 24.429688 C 49.839844 24.523438 49.847656 24.625 49.894531 24.71875 C 49.898438 24.730469 49.90625 24.742188 49.914062 24.75 C 50.164062 26.175781 50.65625 27.261719 51.386719 27.996094 C 52.367188 28.976562 53.414062 28.933594 53.457031 28.929688 C 53.691406 28.917969 53.871094 28.71875 53.859375 28.484375 C 53.851562 28.25 53.648438 28.066406 53.417969 28.074219 C 53.386719 28.074219 52.675781 28.089844 51.96875 27.367188 C 51.53125 26.917969 51.054688 26.128906 50.789062 24.761719 C 51.816406 24.292969 53.574219 23.707031 55.550781 23.960938 C 58.09375 24.285156 58.871094 26.0625 59.292969 27.019531 C 59.34375 27.140625 59.390625 27.25 59.4375 27.339844 C 59.757812 27.984375 59.984375 29.839844 59.769531 30.71875 C 59.527344 31.710938 60.054688 34.234375 60.113281 34.519531 C 60.167969 34.773438 60.246094 35.042969 60.328125 35.328125 C 60.761719 36.84375 60.824219 37.570312 60.042969 37.871094 Z M 43.25 48.570312 C 43.246094 48.582031 43.246094 48.59375 43.242188 48.605469 C 42.550781 49.335938 41.863281 49.890625 40.96875 50.441406 C 40.535156 49.945312 39.542969 48.613281 39.289062 46.523438 C 39.421875 46.246094 39.558594 45.960938 39.691406 45.664062 C 40.238281 45.824219 41.097656 45.976562 42.011719 45.976562 C 42.710938 45.976562 43.441406 45.886719 44.085938 45.644531 C 43.847656 46.5 43.492188 47.742188 43.25 48.570312 Z M 44.066406 52.839844 L 44.152344 53.019531 L 44.34375 53.074219 C 44.355469 53.074219 45.292969 53.335938 45.589844 54.019531 L 42.378906 54.019531 L 41.371094 51.058594 C 42.046875 50.640625 42.621094 50.207031 43.164062 49.710938 C 43.273438 51.089844 43.96875 52.625 44.066406 52.839844 Z M 37.96875 54.019531 L 34.683594 54.019531 L 34.171875 50.929688 C 34.507812 50.683594 34.945312 50.550781 35.40625 50.410156 C 35.523438 50.375 35.644531 50.339844 35.757812 50.304688 C 35.886719 50.261719 36.039062 50.222656 36.195312 50.183594 C 36.394531 50.132812 36.609375 50.074219 36.816406 50.003906 C 36.792969 50.148438 36.769531 50.285156 36.746094 50.421875 C 36.578125 51.316406 36.40625 52.246094 37.375 53.132812 C 37.769531 53.496094 37.914062 53.804688 37.96875 54.019531 Z M 24.347656 46.488281 C 24.105469 46.6875 23.972656 47.035156 23.941406 47.546875 C 23.859375 49.027344 24.65625 51.789062 25.386719 52.558594 L 25.476562 52.648438 L 25.59375 52.679688 C 25.640625 52.691406 26.636719 52.957031 27.054688 54.019531 L 24.003906 54.019531 C 23.867188 53.664062 23.601562 53.058594 23.242188 52.609375 C 23.011719 52.316406 23.011719 52.007812 23.03125 51.53125 C 23.039062 51.320312 23.050781 51.105469 23.03125 50.878906 C 22.964844 50.15625 22.601562 48.886719 22.035156 47.398438 C 21.59375 46.238281 22.25 44.40625 22.394531 44.027344 C 22.675781 43.730469 22.902344 43.457031 23.042969 43.21875 C 23.191406 42.964844 23.300781 42.742188 23.375 42.546875 C 24.261719 43.140625 25.207031 43.535156 26.132812 43.789062 C 25.570312 44.804688 24.761719 46.140625 24.347656 46.488281 Z M 61.148438 35.089844 C 61.070312 34.820312 61 34.566406 60.949219 34.339844 C 60.683594 33.085938 60.46875 31.460938 60.601562 30.921875 C 60.867188 29.828125 60.601562 27.757812 60.203125 26.957031 C 60.164062 26.882812 60.125 26.785156 60.074219 26.675781 C 59.65625 25.722656 58.679688 23.496094 55.65625 23.109375 C 53.617188 22.851562 51.800781 23.394531 50.65625 23.882812 C 50.574219 23.136719 50.550781 22.253906 50.605469 21.210938 L 50.625 20.828125 L 50.25 20.765625 C 50.167969 20.75 49.875 20.726562 49.554688 21.003906 C 49.125 21.378906 48.839844 22.15625 48.710938 23.328125 C 47.925781 22.679688 46.691406 21.765625 45.523438 21.410156 C 42.097656 20.375 38.042969 20.921875 33.132812 23.082031 C 32.113281 23.53125 31.109375 24.105469 30.136719 24.664062 C 28.710938 25.484375 27.363281 26.257812 26.183594 26.5 C 25.148438 26.714844 23.34375 26.738281 21.75 26.761719 C 20.117188 26.785156 18.703125 26.804688 17.976562 26.996094 C 16.863281 27.285156 15.4375 29.058594 15.027344 29.597656 C 14.617188 30.136719 13.277344 31.980469 13.328125 33.101562 L 13.335938 33.324219 C 13.40625 34.953125 13.585938 39.273438 14.429688 41.269531 C 14.921875 42.433594 14.796875 43.511719 14.683594 44.460938 C 14.613281 45.0625 14.546875 45.628906 14.648438 46.136719 C 14.71875 46.472656 14.851562 47.011719 15.003906 47.636719 C 15.363281 49.101562 15.902344 51.316406 15.863281 51.910156 C 15.816406 52.648438 16.300781 53.378906 16.691406 53.96875 C 16.832031 54.183594 17.011719 54.449219 17.035156 54.550781 L 17.117188 54.875 L 21.566406 54.875 L 21.28125 54.265625 C 21.179688 54.054688 20.289062 52.183594 19.425781 51.585938 C 18.90625 51.226562 18.785156 48.363281 19.132812 47.425781 C 19.296875 46.992188 20.285156 46.058594 21.082031 45.308594 C 21.109375 45.285156 21.136719 45.261719 21.160156 45.234375 C 21.007812 46.015625 20.945312 46.941406 21.234375 47.703125 C 21.765625 49.101562 22.121094 50.320312 22.179688 50.957031 C 22.191406 51.125 22.1875 51.304688 22.175781 51.492188 C 22.15625 52.003906 22.128906 52.585938 22.574219 53.144531 C 23.007812 53.683594 23.292969 54.570312 23.296875 54.578125 L 23.390625 54.875 L 28.121094 54.875 L 28.035156 54.375 C 27.738281 52.632812 26.386719 52.039062 25.9375 51.890625 C 25.179688 50.9375 24.523438 47.546875 24.894531 47.144531 C 25.542969 46.601562 26.585938 44.746094 26.996094 43.992188 C 27.914062 44.171875 28.78125 44.230469 29.507812 44.230469 C 30.175781 44.230469 30.722656 44.179688 31.078125 44.140625 C 30.984375 44.75 30.984375 45.367188 31.136719 45.980469 C 31.734375 48.375 32.976562 50.277344 33.265625 50.695312 L 33.960938 54.875 L 38.699219 54.875 L 38.796875 54.585938 C 38.832031 54.484375 39.101562 53.554688 37.953125 52.5 C 37.335938 51.933594 37.421875 51.453125 37.585938 50.578125 C 37.625 50.359375 37.667969 50.136719 37.699219 49.890625 C 37.753906 49.496094 38.144531 48.746094 38.59375 47.882812 C 38.613281 47.847656 38.632812 47.808594 38.652344 47.769531 C 39.164062 49.746094 40.210938 50.90625 40.519531 51.214844 L 41.765625 54.875 L 46.53125 54.875 L 46.53125 54.449219 C 46.53125 53.09375 45.273438 52.496094 44.765625 52.3125 C 44.421875 51.519531 43.796875 49.75 44.070312 48.8125 C 44.417969 47.636719 44.976562 45.632812 45.136719 45.070312 C 45.902344 44.558594 46.921875 43.757812 47.984375 42.921875 C 49.609375 41.648438 51.835938 39.902344 52.484375 39.8125 C 53.058594 39.734375 54.050781 40.257812 54.925781 40.71875 C 55.886719 41.226562 56.714844 41.664062 57.359375 41.589844 C 58.066406 41.511719 58.257812 40.976562 58.40625 40.542969 C 58.613281 39.960938 58.871094 39.238281 60.351562 38.671875 C 61.996094 38.039062 61.484375 36.265625 61.148438 35.089844 " fill-opacity="1" fill-rule="nonzero"/></g><g clip-path="url(#23d3ed00f4)"><path fill="#e6beb6" d="M 59.101562 37.871094 C 57.25 38.578125 56.894531 39.589844 56.65625 40.257812 C 56.5 40.703125 56.464844 40.722656 56.324219 40.738281 C 55.9375 40.78125 55.109375 40.347656 54.382812 39.960938 C 53.796875 39.652344 53.203125 39.339844 52.644531 39.144531 C 52.367188 39.03125 52.023438 38.859375 51.691406 38.691406 C 51.339844 38.515625 50.980469 38.332031 50.667969 38.207031 C 50.1875 38.011719 49.691406 37.808594 49.347656 37.464844 C 49.085938 37.207031 48.871094 36.757812 49.023438 36.394531 C 49.117188 36.175781 49.011719 35.925781 48.792969 35.835938 C 48.578125 35.742188 48.328125 35.847656 48.234375 36.0625 C 47.929688 36.800781 48.269531 37.605469 48.746094 38.074219 C 49.210938 38.539062 49.816406 38.785156 50.347656 39 C 50.476562 39.054688 50.625 39.121094 50.777344 39.195312 C 49.859375 39.652344 48.425781 40.75 46.515625 42.25 C 45.128906 43.335938 43.699219 44.457031 43.054688 44.753906 C 41.867188 45.304688 40.007812 45.117188 39.082031 44.871094 C 39.429688 44 39.730469 43.066406 39.910156 42.089844 C 39.949219 41.859375 39.796875 41.636719 39.566406 41.59375 C 39.332031 41.550781 39.109375 41.703125 39.066406 41.9375 C 38.679688 44.0625 37.644531 46.042969 36.890625 47.488281 C 36.5625 48.117188 36.289062 48.640625 36.113281 49.078125 C 35.878906 49.261719 35.457031 49.371094 35.070312 49.46875 C 34.902344 49.515625 34.742188 49.554688 34.589844 49.601562 C 34.480469 49.640625 34.367188 49.671875 34.25 49.707031 C 33.832031 49.835938 33.402344 49.964844 33.015625 50.195312 C 32.742188 49.789062 31.574219 47.984375 31.023438 45.773438 C 30.6875 44.429688 31.265625 42.984375 31.824219 41.585938 C 32.277344 40.464844 32.699219 39.402344 32.582031 38.476562 C 32.351562 36.703125 33.132812 33.609375 33.140625 33.578125 C 33.199219 33.347656 33.0625 33.117188 32.832031 33.058594 C 32.605469 33 32.371094 33.136719 32.3125 33.367188 C 32.277344 33.5 31.480469 36.652344 31.730469 38.589844 C 31.824219 39.292969 31.4375 40.25 31.03125 41.269531 C 30.78125 41.898438 30.515625 42.5625 30.324219 43.246094 C 29.648438 43.347656 25.496094 43.839844 22.464844 41.507812 C 22.429688 41.460938 22.390625 41.417969 22.347656 41.386719 C 22.316406 41.367188 22.285156 41.351562 22.25 41.335938 C 21.816406 40.972656 21.402344 40.550781 21.035156 40.050781 C 20.894531 39.863281 20.625 39.824219 20.4375 39.964844 C 20.246094 40.105469 20.207031 40.375 20.347656 40.5625 C 20.765625 41.125 21.226562 41.601562 21.710938 42.007812 C 21.6875 42.125 21.609375 42.363281 21.363281 42.78125 C 21.25 42.972656 21.042969 43.214844 20.785156 43.488281 C 20.785156 43.488281 20.78125 43.488281 20.78125 43.488281 C 20.433594 43.855469 19.988281 44.273438 19.550781 44.6875 C 18.558594 45.621094 17.621094 46.507812 17.390625 47.125 C 16.996094 48.179688 16.9375 51.558594 17.996094 52.289062 C 18.40625 52.574219 18.910156 53.390625 19.25 54.019531 L 16.789062 54.019531 C 16.703125 53.863281 16.589844 53.691406 16.460938 53.492188 C 16.15625 53.039062 15.742188 52.414062 15.773438 51.96875 C 15.816406 51.292969 15.402344 49.515625 14.890625 47.433594 C 14.742188 46.816406 14.609375 46.28125 14.542969 45.960938 C 14.46875 45.589844 14.523438 45.113281 14.589844 44.5625 C 14.707031 43.558594 14.855469 42.308594 14.273438 40.933594 C 13.488281 39.082031 13.3125 34.875 13.246094 33.289062 L 13.238281 33.066406 C 13.183594 31.863281 16.03125 28.140625 17.246094 27.824219 C 17.875 27.660156 19.304688 27.640625 20.820312 27.621094 C 22.527344 27.59375 24.296875 27.570312 25.410156 27.339844 C 26.726562 27.070312 28.132812 26.261719 29.621094 25.40625 C 30.570312 24.859375 31.554688 24.296875 32.53125 23.867188 C 37.25 21.789062 41.109375 21.257812 44.332031 22.230469 C 45.617188 22.621094 47.0625 23.839844 47.691406 24.390625 C 47.675781 24.800781 47.675781 25.246094 47.6875 25.726562 C 47.835938 31.269531 52.359375 31.328125 52.496094 31.328125 C 52.734375 31.324219 52.921875 31.128906 52.917969 30.894531 C 52.917969 30.65625 52.71875 30.46875 52.484375 30.472656 C 52.328125 30.472656 48.671875 30.46875 48.542969 25.703125 C 48.5 24.0625 48.621094 23.074219 48.777344 22.484375 C 48.785156 23.1875 48.832031 23.835938 48.917969 24.429688 C 48.894531 24.523438 48.902344 24.625 48.949219 24.71875 C 48.953125 24.730469 48.960938 24.742188 48.96875 24.75 C 49.21875 26.175781 49.710938 27.261719 50.445312 27.996094 C 51.421875 28.976562 52.46875 28.933594 52.515625 28.929688 C 52.75 28.917969 52.925781 28.71875 52.917969 28.484375 C 52.90625 28.25 52.707031 28.066406 52.472656 28.074219 C 52.441406 28.074219 51.730469 28.089844 51.027344 27.367188 C 50.585938 26.917969 50.109375 26.128906 49.84375 24.761719 C 50.871094 24.292969 52.628906 23.707031 54.605469 23.960938 C 57.148438 24.285156 57.929688 26.0625 58.347656 27.019531 C 58.402344 27.140625 58.445312 27.25 58.492188 27.339844 C 58.8125 27.984375 59.039062 29.839844 58.824219 30.71875 C 58.585938 31.710938 59.109375 34.234375 59.171875 34.519531 C 59.222656 34.773438 59.300781 35.042969 59.382812 35.328125 C 59.816406 36.84375 59.878906 37.570312 59.101562 37.871094 Z M 42.308594 48.570312 C 42.304688 48.582031 42.300781 48.59375 42.296875 48.605469 C 41.605469 49.335938 40.921875 49.890625 40.027344 50.441406 C 39.589844 49.945312 38.597656 48.613281 38.34375 46.523438 C 38.476562 46.246094 38.613281 45.960938 38.746094 45.664062 C 39.296875 45.824219 40.15625 45.976562 41.070312 45.976562 C 41.769531 45.976562 42.496094 45.886719 43.140625 45.644531 C 42.902344 46.5 42.550781 47.742188 42.308594 48.570312 Z M 43.125 52.839844 L 43.207031 53.019531 L 43.398438 53.074219 C 43.410156 53.074219 44.351562 53.335938 44.644531 54.019531 L 41.433594 54.019531 L 40.425781 51.058594 C 41.101562 50.640625 41.675781 50.207031 42.21875 49.710938 C 42.328125 51.089844 43.023438 52.625 43.125 52.839844 Z M 37.023438 54.019531 L 33.742188 54.019531 L 33.226562 50.929688 C 33.566406 50.683594 34.003906 50.550781 34.460938 50.410156 C 34.582031 50.375 34.699219 50.339844 34.816406 50.304688 C 34.945312 50.261719 35.09375 50.222656 35.253906 50.183594 C 35.453125 50.132812 35.667969 50.074219 35.875 50.003906 C 35.851562 50.148438 35.824219 50.285156 35.800781 50.421875 C 35.636719 51.316406 35.464844 52.246094 36.429688 53.132812 C 36.824219 53.496094 36.972656 53.804688 37.023438 54.019531 Z M 23.402344 46.488281 C 23.160156 46.6875 23.027344 47.035156 23 47.546875 C 22.914062 49.027344 23.710938 51.789062 24.445312 52.558594 L 24.53125 52.648438 L 24.652344 52.679688 C 24.699219 52.691406 25.695312 52.957031 26.109375 54.019531 L 23.058594 54.019531 C 22.921875 53.664062 22.660156 53.058594 22.300781 52.609375 C 22.066406 52.316406 22.066406 52.007812 22.089844 51.53125 C 22.097656 51.320312 22.105469 51.105469 22.085938 50.878906 C 22.019531 50.15625 21.65625 48.886719 21.089844 47.398438 C 20.652344 46.238281 21.304688 44.40625 21.449219 44.027344 C 21.730469 43.730469 21.957031 43.457031 22.097656 43.21875 C 22.25 42.964844 22.355469 42.742188 22.433594 42.546875 C 23.320312 43.140625 24.265625 43.535156 25.1875 43.789062 C 24.625 44.804688 23.816406 46.140625 23.402344 46.488281 Z M 60.203125 35.089844 C 60.128906 34.820312 60.054688 34.566406 60.007812 34.339844 C 59.738281 33.085938 59.523438 31.460938 59.65625 30.921875 C 59.921875 29.828125 59.660156 27.757812 59.257812 26.957031 C 59.222656 26.882812 59.179688 26.785156 59.128906 26.675781 C 58.714844 25.722656 57.738281 23.496094 54.714844 23.109375 C 52.671875 22.851562 50.859375 23.394531 49.710938 23.882812 C 49.632812 23.136719 49.605469 22.253906 49.660156 21.210938 L 49.679688 20.828125 L 49.304688 20.765625 C 49.222656 20.75 48.929688 20.726562 48.613281 21.003906 C 48.179688 21.378906 47.898438 22.15625 47.765625 23.328125 C 46.980469 22.679688 45.746094 21.765625 44.582031 21.410156 C 41.152344 20.375 37.101562 20.921875 32.1875 23.082031 C 31.167969 23.53125 30.164062 24.105469 29.195312 24.664062 C 27.769531 25.484375 26.421875 26.257812 25.238281 26.5 C 24.203125 26.714844 22.398438 26.738281 20.808594 26.761719 C 19.171875 26.785156 17.757812 26.804688 17.03125 26.996094 C 15.917969 27.285156 14.496094 29.058594 14.085938 29.597656 C 13.671875 30.136719 12.335938 31.980469 12.382812 33.101562 L 12.390625 33.324219 C 12.460938 34.953125 12.640625 39.273438 13.488281 41.269531 C 13.980469 42.433594 13.851562 43.511719 13.738281 44.460938 C 13.667969 45.0625 13.601562 45.628906 13.707031 46.136719 C 13.777344 46.472656 13.90625 47.011719 14.058594 47.636719 C 14.417969 49.101562 14.960938 51.316406 14.921875 51.910156 C 14.871094 52.648438 15.355469 53.378906 15.746094 53.96875 C 15.890625 54.183594 16.066406 54.449219 16.09375 54.550781 L 16.175781 54.875 L 20.621094 54.875 L 20.335938 54.265625 C 20.238281 54.054688 19.347656 52.183594 18.480469 51.585938 C 17.960938 51.226562 17.839844 48.363281 18.191406 47.425781 C 18.351562 46.992188 19.34375 46.058594 20.140625 45.308594 C 20.164062 45.285156 20.191406 45.261719 20.21875 45.234375 C 20.066406 46.015625 20.003906 46.941406 20.292969 47.703125 C 20.824219 49.101562 21.175781 50.320312 21.234375 50.957031 C 21.25 51.125 21.242188 51.304688 21.234375 51.492188 C 21.210938 52.003906 21.1875 52.585938 21.632812 53.144531 C 22.0625 53.683594 22.347656 54.570312 22.351562 54.578125 L 22.445312 54.875 L 27.175781 54.875 L 27.089844 54.375 C 26.792969 52.632812 25.441406 52.039062 24.996094 51.890625 C 24.238281 50.9375 23.578125 47.546875 23.949219 47.144531 C 24.601562 46.601562 25.644531 44.746094 26.050781 43.992188 C 26.972656 44.171875 27.839844 44.230469 28.5625 44.230469 C 29.230469 44.230469 29.777344 44.179688 30.132812 44.140625 C 30.042969 44.75 30.039062 45.367188 30.195312 45.980469 C 30.792969 48.375 32.03125 50.277344 32.320312 50.695312 L 33.015625 54.875 L 37.753906 54.875 L 37.851562 54.585938 C 37.886719 54.484375 38.15625 53.554688 37.007812 52.5 C 36.390625 51.933594 36.480469 51.453125 36.640625 50.578125 C 36.683594 50.359375 36.722656 50.136719 36.757812 49.890625 C 36.808594 49.496094 37.199219 48.746094 37.648438 47.882812 C 37.667969 47.847656 37.6875 47.808594 37.710938 47.769531 C 38.21875 49.746094 39.265625 50.90625 39.578125 51.214844 L 40.824219 54.875 L 45.589844 54.875 L 45.589844 54.449219 C 45.589844 53.09375 44.328125 52.496094 43.824219 52.3125 C 43.480469 51.519531 42.851562 49.75 43.128906 48.8125 C 43.472656 47.636719 44.035156 45.632812 44.191406 45.070312 C 44.957031 44.558594 45.976562 43.757812 47.042969 42.921875 C 48.667969 41.648438 50.894531 39.902344 51.539062 39.8125 C 52.117188 39.734375 53.109375 40.257812 53.984375 40.71875 C 54.941406 41.226562 55.769531 41.664062 56.417969 41.589844 C 57.121094 41.511719 57.3125 40.976562 57.464844 40.542969 C 57.671875 39.960938 57.925781 39.238281 59.40625 38.671875 C 61.050781 38.039062 60.542969 36.265625 60.203125 35.089844 " fill-opacity="1" fill-rule="nonzero"/></g></svg>